<?xml version="1.0" encoding="UTF-8" standalone="no"?><!DOCTYPE svg PUBLIC "-//W3C//DTD SVG 1.1//EN" "http://www.w3.org/Graphics/SVG/1.1/DTD/svg11.dtd"><svg width="100%" height="100%" viewBox="0 0 2894 2240" version="1.1" xmlns="http://www.w3.org/2000/svg" xmlns:xlink="http://www.w3.org/1999/xlink" xml:space="preserve"  style="fill-rule:evenodd;clip-rule:evenodd;stroke-linejoin:round;stroke-miterlimit:2;"><g><path d="M707.142,594.098c1.008,0 4.034,-8.07 -1.009,-9.078c-3.026,-3.026 -25.216,-17.147 -27.234,-18.156l0,1.009c-1.008,-1.009 -1.008,-1.009 0,-1.009c-7.06,-13.113 -26.225,-9.078 -37.32,-18.156c-2.017,0 -4.034,0 -6.052,1.009c0,-1.009 -1.008,-1.009 -1.008,-1.009c-7.061,1.009 -13.113,3.026 -20.173,5.043c-4.035,-3.025 -10.087,-12.103 -9.078,-16.138c0,-3.026 4.034,-22.19 4.034,-23.199c7.061,-39.338 10.087,-85.736 19.165,-131.125c8.069,-41.355 19.164,-94.814 24.207,-128.099c2.018,-13.113 4.035,-23.199 6.052,-33.286c1.009,-10.086 4.035,-18.156 6.052,-29.251c5.044,-25.216 22.191,-66.571 -6.052,-85.736c-4.034,-3.026 -5.043,-4.034 -8.069,-3.026c-2.017,-7.06 -7.06,-11.095 -13.112,-14.121c-1.009,0 -10.087,-5.043 -14.122,-5.043c-7.06,-2.017 -12.103,-9.078 -19.164,-11.095c0,1.008 0,2.017 -1.009,3.026c-2.017,-2.018 -4.034,-2.018 -6.052,-3.026l0,2.017l0,-1.009l-1.008,1.009c-2.018,2.017 -5.044,2.017 -6.052,-1.009c-10.087,26.225 -18.156,53.459 -26.225,81.701c-42.364,126.082 -62.537,255.19 -77.667,398.419c-1.008,8.069 -1.008,18.156 -2.017,26.225c-1.009,3.026 -8.069,11.095 -10.086,12.104c-7.061,2.017 -13.113,6.052 -19.165,8.069l-1.009,0c-2.017,-1.008 -4.034,-1.008 -6.051,0l-1.009,0c-9.078,-2.017 -18.156,6.052 -24.208,4.035c1.009,3.026 -6.052,4.035 -12.104,3.026c-62.536,22.19 -123.056,45.389 -179.54,72.623c-4.035,-2.017 -9.078,-6.052 -9.078,-11.095c2.017,-24.208 6.052,-52.45 9.078,-68.589c-4.035,-4.034 1.008,-5.043 -3.026,-6.052c2.017,-1.008 3.026,-1.008 4.034,-2.017c-2.017,-1.009 -4.034,0 -4.034,-2.017c6.052,-38.329 14.121,-76.658 15.13,-111.961c6.052,-32.277 12.103,-63.545 15.129,-95.822c0,1.008 1.009,0 1.009,-2.017c2.017,-39.338 21.182,-96.831 26.225,-151.299c-3.026,-4.034 -8.069,-8.069 -13.112,-7.06c1.008,-7.061 -3.026,-9.078 -9.078,-11.095c-3.026,0 -8.07,-3.026 -12.104,-5.044c-6.052,4.035 -15.13,-6.052 -14.121,-9.078c-3.026,0 -4.035,0 -7.061,1.009l0,-1.009c-5.043,0 -5.043,0 -11.095,1.009c-13.113,3.026 -16.139,55.476 -19.165,64.554c-3.026,9.078 -8.069,13.112 -10.086,21.182c-10.087,29.251 -17.147,66.571 -24.208,104.9c-21.182,107.926 -36.311,234.008 -43.372,340.925c-1.009,4.035 -8.069,18.156 -12.104,21.182c-30.26,24.208 -67.58,54.467 -91.787,88.761c-14.122,20.174 -32.277,59.511 -1.009,69.598c1.009,-1.009 2.017,-1.009 3.026,-1.009c1.009,0 3.026,1.009 4.034,1.009c1.009,-1.009 3.026,-1.009 5.044,-2.018l0,2.018c2.017,1.008 5.043,0 7.06,-1.009l0,1.009c5.044,2.017 11.096,-4.035 13.113,-8.07c0,-5.043 -5.043,-5.043 -5.043,-10.086c-4.035,-4.035 -6.052,-4.035 -5.044,-5.043c9.078,-26.225 39.338,-50.433 60.52,-66.572c3.026,-3.026 6.052,-6.052 10.086,-9.078c3.026,3.026 7.061,7.061 6.052,11.096c-4.035,81.701 -2.017,193.661 0,265.276c2.017,2.017 0,12.104 5.043,14.121c5.044,3.026 10.087,10.087 13.113,16.139c4.034,6.051 12.104,9.077 20.173,8.069c5.043,1.008 10.086,0 13.112,-3.026c14.122,-8.069 9.078,-8.069 15.13,-10.087c6.052,-2.017 3.026,-14.121 4.035,-22.19l2.017,0c0,-1.009 2.018,-3.026 3.026,-7.061c-1.008,3.026 0,9.078 4.035,7.061c2.017,-1.009 6.052,-18.156 4.034,-23.199c10.087,-15.13 13.113,-36.312 14.122,-55.476c0,-2.018 -3.026,-5.043 -3.026,-7.061c1.008,-44.381 9.078,-166.428 9.078,-249.138c0,-5.043 8.069,-19.164 12.103,-21.181c63.546,-27.234 124.065,-57.494 192.653,-80.693l3.026,0c13.113,1.009 27.234,-5.043 41.355,-10.086c4.035,2.017 8.069,7.06 7.061,10.086c-1.009,27.234 0,54.468 -2.017,87.753c-4.035,72.623 -5.044,121.039 -2.018,196.688c3.026,68.589 12.104,137.177 23.199,199.714c7.061,7.06 7.061,22.19 11.095,34.294c4.035,13.112 7.061,25.216 14.122,34.294c3.026,1.009 8.069,3.026 12.104,3.026c3.025,15.13 9.077,32.277 25.216,30.26l0,-1.009c2.017,1.009 4.034,1.009 7.06,1.009c0,-1.009 -3.026,-3.026 -1.008,-4.035c5.043,-5.043 17.147,-3.026 25.216,-6.052c-4.034,-7.06 2.017,-9.078 4.035,-13.112c-10.087,-107.926 -12.104,-235.017 -7.061,-348.995c4.035,-76.658 6.052,-153.315 14.121,-229.973c-2.017,-10.087 13.113,-22.191 15.13,-22.191l10.087,0c20.173,0 42.363,2.018 50.432,13.113c1.009,-1.009 2.018,-2.017 4.035,-3.026c1.009,1.009 2.017,2.017 3.026,3.026c3.026,-2.017 29.251,-27.234 24.208,-34.294Zm-182.567,141.211c-1.008,-32.277 4.035,-67.58 5.044,-100.865c4.034,-1.009 9.077,-2.017 12.103,-4.035c2.018,0 2.018,0 3.026,1.009c-3.026,45.389 -14.121,64.554 -20.173,103.891Zm95.822,-504.327c4.035,15.13 1.009,29.251 -1.008,54.467c5.043,-2.017 4.034,-19.164 5.043,-13.112c1.009,9.078 -3.026,14.121 0,30.259c-2.017,0 -1.009,-2.017 -3.026,-2.017c5.043,30.26 -10.086,57.493 -17.147,88.762c-5.043,27.233 -8.069,55.476 -11.095,82.709c-3.026,29.251 -7.061,55.476 -8.069,87.753c-1.009,4.035 -9.078,2.018 -12.104,5.044c9.078,-115.996 22.19,-225.939 47.406,-333.865Zm-28.242,327.813c2.017,-13.113 2.017,-38.329 5.043,-53.459c1.009,12.104 3.026,38.329 -3.026,48.415c1.009,2.018 2.018,3.026 5.044,2.018c-1.009,2.017 -5.044,2.017 -7.061,3.026Zm-351.012,-200.723c-6.052,24.208 -9.078,50.433 -15.13,74.641c4.035,-40.346 4.035,-86.744 19.165,-126.082c1.009,0 2.017,1.009 3.026,2.017c6.052,11.096 -2.017,27.234 -7.061,49.424Zm-91.787,597.124c1.008,17.147 5.043,33.286 5.043,50.433c0,6.052 0,15.13 -5.043,20.173c-1.009,-17.147 1.008,-46.398 0,-70.606Zm229.973,-278.389c-33.286,7.061 -65.563,22.191 -94.814,35.303c17.148,-7.06 34.295,-13.112 52.45,-19.164c-16.138,6.052 -31.268,13.112 -45.389,19.164c30.26,-12.104 62.537,-23.199 94.814,-35.303c-8.07,2.018 -17.148,4.035 -25.217,7.061c6.052,-2.017 12.104,-4.035 18.156,-7.061Z" style="fill-rule:nonzero;"/><path d="M978.47,599.141c-1.009,3.026 -6.052,2.017 -6.052,-2.017c-2.017,-8.07 -6.052,-17.147 -11.095,-25.217c-1.009,-3.026 -3.026,-5.043 -6.052,-8.069c-8.069,-9.078 -14.121,-18.156 -24.208,-26.225c-5.043,-4.035 -10.086,-10.087 -15.13,-14.121c-5.043,-5.043 -15.129,-8.069 -21.181,-11.095c-3.026,-1.009 -6.052,-2.018 -9.078,-2.018c-10.087,-2.017 -20.173,-2.017 -30.26,0c-3.026,0 -6.052,1.009 -9.078,2.018c-13.112,2.017 -25.216,7.06 -36.311,13.112c-2.018,1.009 -4.035,3.026 -6.052,4.035c-27.234,24.207 -47.407,54.467 -67.58,82.709c-2.018,2.018 -4.035,5.044 -6.052,8.07c-20.173,27.233 -31.268,58.502 -42.364,89.77c-2.017,4.035 -3.026,8.069 -4.034,11.095c-4.035,10.087 -7.061,20.173 -10.087,31.268c-1.008,3.026 -2.017,6.052 -3.026,10.087c-4.034,17.147 -9.078,35.303 -9.078,53.459l0,45.389c-2.017,10.087 -1.008,22.191 1.009,33.286c1.009,3.026 1.009,5.043 2.017,8.069c3.026,12.104 3.026,25.216 9.078,36.312c1.009,2.017 3.026,4.034 4.035,6.052c14.121,13.112 30.259,30.259 52.45,25.216c3.026,-1.009 6.052,2.017 9.078,2.017c6.052,-1.008 10.086,-2.017 15.13,-5.043c2.017,-2.017 4.034,-3.026 6.051,-5.043c26.226,-24.208 45.39,-56.485 67.58,-86.745c2.018,-2.017 4.035,-3.026 6.052,-5.043c8.07,-14.121 17.147,-27.234 26.225,-40.346c2.018,-3.026 4.035,-5.043 6.052,-8.069c9.078,-14.121 21.182,-24.208 29.251,-37.321c1.009,-2.017 3.026,-4.034 4.035,-7.06c1.009,-2.017 2.017,-4.035 2.017,-7.061l1.009,1.009c8.069,-11.095 15.13,-23.199 23.199,-34.294c4.035,-6.052 12.104,-2.018 11.095,5.043c-2.017,13.112 -4.035,25.216 -6.052,37.32c-1.008,3.026 -2.017,7.061 -2.017,10.087c-3.026,3.026 -1.009,7.06 -3.026,10.086l0,-4.034c-15.13,28.242 -14.121,61.528 -18.156,91.787l0,9.078c-1.009,6.052 -1.009,12.104 -1.009,18.156l0,11.095c1.009,16.139 3.026,27.234 5.044,43.372c0,3.026 0,6.052 1.008,9.078c1.009,11.095 3.026,22.191 5.044,33.286c1.008,4.034 1.008,7.06 2.017,11.095c5.043,24.208 14.121,35.303 24.208,57.493c1.008,3.026 3.026,7.061 4.034,10.087c8.07,13.112 22.191,23.199 36.312,25.216c10.086,2.018 18.156,1.009 28.242,1.009c3.026,0 5.043,-1.009 8.069,-2.017c2.018,-1.009 4.035,-2.018 7.061,-4.035c2.017,-2.017 5.043,-5.043 8.069,-8.069c7.061,-11.095 8.069,-22.191 13.113,-33.286c5.043,-9.078 8.069,-18.156 11.095,-27.234c1.009,-4.034 1.009,-7.06 2.017,-10.086c5.044,-18.156 23.199,-55.476 28.243,-73.632c1.008,-3.026 2.017,-7.061 3.026,-11.095c4.034,-11.095 25.216,-71.615 27.233,-83.718c1.009,-2.018 1.009,-5.044 2.018,-8.07c1.008,-10.086 10.086,-34.294 11.095,-44.381c0,1.009 1.008,1.009 1.008,2.018c1.009,-4.035 2.018,-7.061 3.026,-11.095c0,-3.026 1.009,-7.061 2.018,-10.087c2.017,-9.078 4.034,-18.156 7.06,-27.234c1.009,-3.026 7.061,-22.19 8.07,-25.216c9.077,-25.216 27.233,-64.554 28.242,-90.779c0,-4.035 -12.104,-12.104 -14.121,-9.078c-18.156,19.165 -27.234,62.537 -36.312,86.744c-1.009,4.035 -2.017,7.061 -4.034,11.096c-3.026,10.086 -12.104,36.311 -16.139,47.406c-1.009,3.026 -2.017,6.052 -3.026,9.078c-3.026,9.078 -27.234,68.589 -30.26,77.667c-1.008,3.026 -9.077,25.216 -10.086,28.242c-5.043,14.121 -23.199,55.476 -29.251,69.597c-1.009,4.035 -2.017,7.061 -3.026,10.087c-5.043,14.121 -10.087,27.234 -16.139,40.346c-1.008,2.017 -1.008,5.043 -2.017,7.061c-6.052,9.077 -13.112,14.121 -15.13,8.069c0,-3.026 -1.008,-7.061 -1.008,-10.087c-2.018,-9.078 -4.035,-18.155 -5.044,-27.233c-1.008,-13.113 -2.017,-26.225 -2.017,-39.338l0,-9.078c0,-34.294 4.035,-63.545 11.095,-97.839c1.009,-4.035 2.018,-7.061 2.018,-11.096c2.017,-10.086 4.034,-20.173 6.052,-31.268c1.008,-3.026 2.017,-6.052 2.017,-9.078c7.06,-32.277 16.138,-64.554 24.208,-95.822c0,-4.035 1.008,-7.061 2.017,-11.095c3.026,-11.095 5.043,-22.191 8.069,-32.277c1.009,-4.035 2.017,-7.061 2.017,-10.087c5.044,-16.138 8.07,-33.285 10.087,-49.424c0,-3.026 -1.009,-6.052 -1.009,-8.069c-2.017,-14.121 -9.078,-27.234 -19.164,-38.329c-7.061,-9.078 -19.165,-11.095 -30.26,-9.078c-4.034,0 -6.052,1.009 -9.078,2.018c-17.147,9.077 -18.155,33.285 -25.216,51.441Zm-62.537,-2.017c2.018,3.026 5.044,6.052 6.052,10.086c4.035,5.043 7.061,11.095 8.07,17.147c2.017,6.052 3.025,12.104 2.017,19.165c-1.009,13.112 -5.043,26.225 -12.104,37.32c-1.009,3.026 -3.026,5.043 -5.043,7.061c-1.009,2.017 -3.026,5.043 -5.044,7.06c-1.008,2.017 -3.026,4.035 -4.034,6.052c-1.009,1.009 -3.026,2.017 -4.035,3.026c-1.008,1.009 -1.008,3.026 -2.017,4.035c-16.139,17.147 -31.268,35.303 -46.398,52.45c-3.026,3.026 -5.044,5.043 -7.061,8.069c-6.052,7.061 -12.104,14.121 -19.164,21.182c-2.018,2.017 -4.035,5.043 -6.052,7.06c-21.182,23.199 -41.355,48.416 -66.571,67.58c-3.026,-32.277 6.051,-64.554 15.129,-95.822c1.009,-3.026 2.018,-7.061 3.026,-10.087c5.044,-16.138 12.104,-32.277 19.165,-47.406c1.008,-3.026 3.026,-6.052 4.034,-9.078c10.087,-20.173 21.182,-39.338 34.295,-56.485c2.017,-3.026 4.034,-5.043 5.043,-8.069c14.121,-17.147 28.242,-34.294 47.407,-44.381c2.017,-1.009 4.034,-2.017 6.052,-3.026c3.026,-1.009 5.043,-1.009 7.06,-1.009c4.035,0 8.069,0 12.104,1.009c4.035,1.009 7.061,3.026 8.069,7.061Zm-138.185,272.336c1.008,-1.008 3.026,-1.008 3.026,-2.017c0,2.017 0,4.035 -1.009,7.061c-1.009,2.017 -2.017,4.034 -4.035,6.052c-6.052,8.069 -15.13,16.138 -22.19,22.19c1.009,-10.086 8.069,-17.147 15.13,-23.199c2.017,-2.017 4.034,-3.026 5.043,-5.043c2.017,-2.018 3.026,-3.026 4.035,-5.044Zm244.094,229.974c0,-4.035 21.182,-50.433 25.216,-49.424c1.009,6.052 -22.19,50.432 -25.216,49.424Z" style="fill-rule:nonzero;"/><path d="M1670.41,664.704c0,1.008 -1.009,1.008 -1.009,2.017c0,0 1.009,-1.009 1.009,-2.017Zm210.809,-77.667c-3.026,-22.19 -27.234,-42.363 -19.164,-38.329c-24.208,-19.164 -56.485,1.009 -80.693,13.113c-16.138,10.086 -30.259,19.164 -42.363,31.268c-27.234,23.199 -54.468,47.407 -68.589,71.615c1.009,-1.009 3.026,-1.009 4.035,-2.018c-7.061,6.052 -10.087,17.147 -18.156,21.182c1.009,-1.009 5.043,-5.043 3.026,-5.043c-33.286,38.329 -72.623,91.787 -93.805,125.073c-2.017,4.035 -5.043,10.086 -9.078,16.138c-3.026,8.07 -7.06,14.122 -12.104,20.173c-1.008,1.009 -6.052,7.061 -8.069,5.044c-7.061,-18.156 0,-36.312 -3.026,-54.468c0,-5.043 -2.017,-12.103 -3.026,-17.147c-2.017,-6.052 -3.026,-12.104 -3.026,-19.164c-1.008,-15.13 0,-31.268 1.009,-47.407c0,-5.043 1.008,-10.087 1.008,-16.138c-3.025,-41.355 2.018,-84.727 48.416,-92.797c5.043,-3.026 11.095,-6.052 16.138,-10.086c17.148,-8.069 32.277,-16.139 47.407,-22.191c9.078,-6.052 15.13,-13.112 24.208,-13.112c16.138,-10.087 29.251,-23.199 42.363,-36.312c15.13,-13.112 33.286,-21.181 45.39,-34.294c9.078,-8.069 17.147,-21.182 27.234,-32.277c8.069,-11.095 20.173,-21.182 27.233,-32.277c6.052,-9.078 10.087,-22.19 18.156,-33.286c20.173,-31.268 40.346,-67.579 50.433,-100.865l3.026,2.017c1.008,-1.008 -2.018,-5.043 -1.009,-6.052c-1.009,1.009 2.017,1.009 2.017,0c2.018,-2.017 3.026,-10.086 5.044,-12.103c14.121,-52.451 10.086,-112.97 -2.018,-168.446c-3.026,-1.008 -6.052,-3.026 -8.069,-4.034c-9.078,-16.139 -22.19,-27.234 -37.32,-38.329c-19.165,-14.121 -32.277,-27.234 -66.571,-25.217c-24.208,2.018 -56.485,4.035 -78.675,13.113c-43.373,17.147 -97.84,55.476 -126.082,89.77c-17.147,20.173 -30.26,48.416 -43.372,76.658c-27.234,56.485 -48.416,113.978 -63.546,179.54c-6.052,25.217 -11.095,49.425 -17.147,74.641c-2.017,8.069 -3.026,16.138 -5.043,25.216c-13.113,83.719 -20.173,167.437 -26.225,251.155c-1.009,8.07 -1.009,16.139 -1.009,26.225c0,68.589 18.156,136.169 59.511,194.671c4.034,9.078 9.078,17.147 18.156,19.164c7.06,-1.009 30.259,4.035 40.346,6.052c7.06,-3.026 9.078,-10.086 14.121,-14.121c8.069,-49.424 15.13,-95.822 36.312,-129.108c4.034,-3.026 11.095,-3.026 15.129,-4.035c13.113,14.122 21.182,36.312 29.251,56.485c18.156,46.398 35.303,85.736 59.511,128.099c34.294,62.537 79.684,146.255 166.428,118.013c11.095,-14.121 23.199,-31.268 27.234,-48.416c-5.044,0 -4.035,8.07 -10.087,8.07c2.017,-4.035 1.009,-9.078 -4.034,-10.087c-10.087,7.061 -15.13,19.165 -35.303,17.147c-9.078,-5.043 -16.139,-20.173 -23.199,-22.19c4.034,7.06 13.112,15.13 13.112,21.182c-11.095,-5.044 -20.173,-14.122 -28.242,-22.191c4.034,1.009 15.13,12.104 14.121,5.044c-19.165,-23.2 -41.355,-54.468 -56.485,-86.745c3.026,2.018 6.052,12.104 9.078,10.087c-25.216,-57.494 -57.493,-106.918 -89.77,-157.35c0,-4.035 -3.026,-4.035 -2.017,-11.096c-3.026,0 -5.044,-2.017 -6.052,-4.034c-4.035,-4.035 4.034,-18.156 8.069,-19.165c51.441,-18.155 105.909,-48.415 131.125,-83.718c7.061,-10.087 18.156,-18.156 28.242,-30.26c23.199,-27.233 56.485,-75.649 61.528,-115.995c2.018,-16.138 -3.026,-20.173 -8.069,-28.242c1.009,7.06 10.087,16.138 3.026,22.19Zm11.095,-407.496c-3.026,1.008 -1.008,-15.13 -2.017,-20.174c3.026,-1.008 1.009,14.122 2.017,20.174Zm-3.026,-40.347c2.018,-4.034 1.009,8.07 1.009,11.096c-2.017,4.034 -1.009,-8.07 -1.009,-11.096Zm-278.388,86.745c1.008,-2.018 2.017,1.008 3.025,-2.018c-4.034,16.139 -16.138,35.303 -23.199,50.433c3.026,-13.112 14.122,-37.32 20.174,-48.415Zm-22.191,16.138c-2.017,15.13 -17.147,38.329 -20.173,59.511c-5.043,-17.147 7.061,-47.407 20.173,-59.511Zm13.113,13.113c2.017,-3.026 3.026,2.017 4.034,-1.009c18.156,-40.346 35.303,-83.718 69.597,-119.021c29.251,-29.251 68.589,-69.597 117.004,-69.597c37.321,-1.009 44.381,31.268 64.554,51.441c7.061,20.173 3.026,49.424 3.026,68.588c4.035,-1.008 -2.017,-3.025 1.009,-5.043c3.026,71.615 -22.191,128.099 -50.433,171.472c4.035,-2.018 6.052,-7.061 9.078,-11.096c5.043,2.018 -7.061,6.052 -3.026,9.078c-30.26,32.277 -53.459,81.701 -91.788,109.944c19.165,-23.199 43.373,-52.45 62.537,-80.693c-2.017,-1.008 -5.043,7.061 -10.086,7.061c-23.2,41.355 -75.65,67.58 -113.978,105.909c-16.139,15.129 -39.338,29.251 -59.511,42.363c-2.017,4.035 -2.017,4.035 -3.026,8.069c-8.069,5.044 -16.139,9.078 -24.208,12.104c-8.069,4.035 -17.147,7.061 -27.233,9.078c-5.044,1.009 -11.096,-13.112 -10.087,-22.19c2.017,-8.07 3.026,-17.147 5.043,-25.217c15.13,-91.787 25.217,-187.61 57.494,-261.241Zm-68.589,290.492c2.017,6.052 1.009,21.182 -4.035,25.217c2.018,-9.078 4.035,-16.139 4.035,-25.217Zm-22.19,228.965c0,-6.052 5.043,-3.026 5.043,-3.026c2.017,10.086 -2.017,20.173 -3.026,28.242c-1.009,-8.069 -2.017,-15.13 -2.017,-25.216Zm7.06,123.056c-7.06,-25.217 -4.034,-52.45 -4.034,-78.675c2.017,20.173 4.034,40.346 4.034,59.51l0,19.165Zm-1.008,-191.645c-1.009,6.052 1.008,13.113 1.008,19.165c0,7.06 -1.008,14.121 -7.06,18.156c-1.009,-5.044 -2.018,-11.096 -2.018,-16.139c-1.008,-6.052 -1.008,-12.104 0,-17.147c2.018,-22.19 7.061,-42.364 9.078,-65.563l0,44.381c-1.008,5.044 -1.008,11.095 -1.008,17.147Zm211.817,268.303c-2.017,-5.044 -13.112,-22.191 -18.156,-34.295c2.018,4.035 14.121,22.191 18.156,34.295Zm-145.246,-176.515c3.026,-7.061 9.078,-11.095 13.112,-17.147c-1.008,3.026 -6.052,14.121 -13.112,17.147Zm32.277,-45.39c3.026,-4.034 20.173,-23.199 27.233,-34.294c-4.034,11.095 -18.155,26.225 -25.216,34.294c-10.086,10.087 -2.017,0 -2.017,0Zm176.514,-105.908c-21.181,28.242 -41.354,45.389 -67.58,70.606c-7.06,7.06 -15.129,13.112 -22.19,19.164c-8.069,10.087 -15.13,20.173 -24.208,26.225c-19.164,10.087 -42.363,12.104 -58.502,24.208c-3.026,1.008 -6.052,-1.009 -5.043,-4.035c29.251,-49.424 75.649,-99.857 118.013,-144.238c21.181,-22.19 37.32,-45.389 61.528,-55.476c2.017,-1.008 15.13,-8.069 25.216,-4.034c0,27.234 -11.095,46.398 -27.234,67.58Zm83.719,-44.381c-2.018,-9.078 -5.044,-17.147 -8.07,-26.225c8.07,4.035 11.096,15.13 8.07,26.225Z" style="fill-rule:nonzero;"/><path d="M1894.33,681.851Zm1.008,-2.018c-1.008,1.009 -1.008,1.009 -1.008,2.018l1.008,-1.009l0,-1.009Zm464.99,29.251c6.052,-24.207 26.225,-48.415 7.061,-70.606c-1.009,-1.008 -3.026,0 -5.044,3.026c4.035,-4.034 0,-6.051 0,-6.051c-20.173,42.363 -37.32,84.727 -54.467,128.099c-2.017,6.052 -4.035,11.095 -6.052,16.138c-3.026,5.043 -5.043,11.095 -7.061,16.139c4.035,4.034 -1.008,6.052 1.009,12.104c-17.147,34.294 -23.199,73.631 -54.467,100.865c-1.009,1.009 -4.035,2.017 -5.044,2.017c-1.008,0 1.009,-4.034 2.018,-5.043c19.164,-16.138 30.259,-40.346 35.303,-60.519c-10.087,18.156 -18.156,38.329 -37.321,51.441c-2.017,1.009 -8.069,-1.009 -8.069,-4.034c-8.069,-33.286 -12.104,-56.485 -14.121,-81.702c2.017,-36.311 2.017,-88.761 4.035,-127.09c0,-11.095 4.034,-89.77 4.034,-100.866c1.009,-10.086 6.052,-24.207 2.018,-33.285c-2.018,-3.026 -7.061,-4.035 -10.087,-7.061c-4.035,-4.034 -4.035,-11.095 -12.104,-12.104c-5.043,1.009 -7.06,-3.026 -11.095,-6.051c-4.035,-3.026 -13.112,-4.035 -19.164,-10.087c-4.035,0 -2.018,4.035 -4.035,5.043c-2.017,0 -3.026,-3.026 -5.043,-4.034c-25.217,38.328 -32.277,88.761 -49.424,132.133c1.008,0 2.017,-1.008 2.017,0c-22.19,54.468 -35.303,114.987 -54.467,171.472c6.051,1.008 -1.009,2.017 4.034,4.034c-2.017,2.018 -1.008,0 -2.017,3.026c-3.026,12.104 -11.095,20.173 -13.113,32.277c-16.138,26.225 -21.181,60.52 -50.432,79.684c-2.018,2.017 -9.078,1.009 -11.096,-2.017c-2.017,-2.018 -4.034,-4.035 -2.017,-4.035c-27.234,-39.337 -16.138,-95.822 -21.182,-133.142c2.018,0 1.009,1.008 2.018,-1.009c2.017,-16.139 -1.009,-41.355 7.06,-57.493c1.009,3.026 2.018,7.06 2.018,10.086c5.043,-53.459 13.112,-96.831 21.181,-145.246c2.018,-15.13 9.078,-39.338 2.018,-54.467c-5.044,-1.009 -3.026,2.017 -5.044,1.008c0,-5.043 -4.034,-9.078 -9.078,-10.086c-2.017,-2.018 -1.008,4.034 -5.043,4.034c-6.052,-4.034 -13.112,-6.052 -21.182,-5.043c-22.19,14.121 -23.199,28.242 -35.303,48.415c8.07,-21.181 13.113,-43.372 30.26,-59.51c-10.086,2.017 -16.138,18.156 -20.173,28.242c-12.104,27.234 -20.173,64.554 -29.251,93.805c-3.026,11.095 -3.026,21.182 -9.078,29.251c0,0 0,1.009 -1.008,1.009c-13.113,50.432 -21.182,122.047 -10.087,186.601c7.061,36.311 15.13,74.64 43.372,98.848c16.139,15.13 52.45,34.294 73.632,25.216c22.19,6.052 43.372,-7.06 45.389,-19.164c11.096,-22.191 11.096,-54.467 22.191,-85.736c0,5.044 -11.095,43.372 -9.078,50.433c19.164,-29.251 30.26,-102.883 43.372,-131.125c1.009,5.043 -1.009,9.078 -2.017,13.112c0,4.035 -1.009,8.07 1.008,0c4.035,-12.103 7.061,-28.242 11.096,-43.372c3.026,-12.104 11.095,-8.069 12.103,3.026c3.026,19.165 6.052,37.32 9.078,56.485c4.035,31.268 12.104,85.736 49.424,112.969c15.13,6.052 37.321,23.199 53.459,13.113c24.208,6.052 36.312,-18.156 44.381,-34.295c18.156,-29.251 32.277,-70.605 39.337,-99.856c-1.008,-12.104 7.061,-25.217 12.104,-38.329c1.009,-5.044 2.018,-9.078 4.035,-13.113c5.043,-14.121 8.069,-27.233 16.138,-40.346c2.018,-4.035 3.026,-7.061 5.044,-12.104c1.008,-6.052 4.034,-15.13 2.017,-15.13Zm-418.592,77.667c-2.017,-30.26 -2.017,-62.537 4.035,-101.874c1.009,-5.044 2.017,6.052 0,9.078c2.017,30.259 0,63.545 -4.035,92.796Zm27.234,-73.632c1.009,14.121 -1.009,36.312 -6.052,51.441c0,-14.121 3.026,-27.233 6.052,-51.441Zm91.788,175.506c-3.026,-7.061 4.034,-17.147 7.06,-25.216c3.026,-9.078 6.052,-19.165 10.087,-27.234c-2.018,24.208 -12.104,31.268 -17.147,52.45Zm106.917,-160.376c-3.026,-29.251 2.017,-58.502 3.026,-86.745c3.026,6.052 2.017,13.113 3.026,21.182c2.017,19.165 -4.035,43.372 -6.052,65.563Zm138.186,155.333l0,1.008l0,-1.008Z" style="fill-rule:nonzero;"/><path d="M2826.33,122.047c-3.026,-4.034 -1.009,-5.043 -1.009,-10.086c-4.035,-40.347 -40.346,-90.779 -63.545,-103.892c-18.156,-11.095 -33.286,-5.043 -51.442,-4.034c-4.034,0 -8.069,-4.035 -11.095,0l0,-4.035c-45.389,3.026 -70.606,25.216 -103.891,40.346c-4.035,-1.008 -51.442,37.32 -52.45,37.32c-33.286,30.26 -59.511,72.624 -86.745,109.944c-9.078,13.112 -20.173,26.225 -27.233,39.337c-31.269,57.494 -47.407,141.212 -61.528,208.792c-1.009,-1.009 0,-4.035 -2.018,-4.035c1.009,14.121 -5.043,33.286 -9.078,42.364c-1.008,-6.052 1.009,-10.087 1.009,-15.13c0,-14.121 -3.026,11.095 -3.026,16.138c-19.164,65.563 -27.234,154.325 -24.208,234.008c0,-2.017 0,-4.034 -1.008,-4.034c-5.044,34.294 -3.026,83.718 1.008,117.004c1.009,-4.035 5.044,13.112 5.044,26.225c6.052,1.008 -3.026,-7.061 4.034,-6.052c5.044,36.311 5.044,80.692 22.191,110.952c7.06,11.095 16.138,20.173 25.216,31.268c13.113,15.13 24.208,31.268 44.381,35.303c4.034,0 -3.026,-3.026 3.026,-3.026c8.069,10.087 19.164,20.173 35.303,19.164c5.043,-1.008 12.104,-6.051 18.156,-7.06c8.069,0 17.147,-4.035 22.19,-6.052c10.086,-5.043 25.216,-16.138 35.303,-26.225c23.199,-23.199 32.277,-61.528 43.372,-97.84c12.104,-36.311 34.294,-93.804 39.338,-124.064c0,2.017 -3.026,-6.052 2.017,-13.113c1.009,2.018 0,5.044 2.017,5.044c0,-6.052 3.026,-9.078 4.035,-15.13c3.026,5.043 8.069,-18.156 11.095,-33.286c5.043,-20.173 11.095,-42.363 7.061,-56.484c-6.052,-4.035 -13.113,-14.122 -21.182,-17.148c2.017,19.165 -12.104,35.303 -13.113,50.433c1.009,-3.026 3.026,-11.095 5.044,-8.069c-5.044,25.216 -13.113,52.45 -22.191,70.606c0,-5.044 -1.008,0 -4.034,-1.009c-20.174,49.424 -56.485,140.203 -71.615,188.619c2.017,-3.026 9.078,-23.199 13.113,-25.217c0,3.026 -6.052,10.087 -1.009,9.078c4.035,-8.069 6.052,-18.156 10.086,-26.225c-1.008,20.173 -24.207,60.519 -23.199,58.502c1.009,-1.009 1.009,-3.026 0,-3.026c-3.026,6.052 -10.086,14.121 -14.121,14.121c4.035,-4.034 10.087,-13.112 10.087,-17.147c-9.078,12.104 -20.173,21.182 -32.277,29.251c-8.069,-8.069 -10.087,-20.173 -17.147,-27.234c-7.061,-27.233 -13.113,-52.45 -16.139,-80.692c-7.06,-67.58 -16.138,-142.22 -10.086,-218.878c1.008,-7.061 13.112,-23.199 18.155,-24.208c15.13,-4.034 25.217,-11.095 40.347,-20.173c17.147,-10.086 30.259,-24.208 43.372,-38.329c94.813,-78.675 178.532,-175.506 236.025,-286.458c3.026,3.026 23.199,-45.389 28.242,-71.614c2.018,3.026 11.096,-24.208 5.044,-21.182c-1.009,-3.026 5.043,-1.009 4.034,-5.043c2.018,-22.191 3.026,-46.398 5.044,-68.589Zm-486.172,711.102c-5.043,-27.234 -6.052,-53.459 -6.052,-87.753c2.017,-3.026 1.009,8.069 1.009,11.095c6.052,-8.069 1.008,-25.216 3.026,-37.32c3.026,36.311 3.026,69.597 2.017,113.978Zm15.13,46.398c12.104,41.355 33.285,72.623 52.45,107.926c-21.182,-28.242 -50.433,-59.511 -52.45,-107.926Zm201.731,53.459c-1.009,14.121 -10.087,31.268 -19.165,41.355c3.026,-16.139 11.095,-30.26 19.165,-41.355Zm-71.615,55.476c-3.026,-3.026 -5.043,-5.044 -6.052,-9.078c3.026,2.017 6.052,4.034 6.052,9.078Zm-38.329,-136.169c5.044,46.398 14.122,100.866 27.234,133.143c-26.225,-35.303 -30.26,-95.822 -34.294,-145.247c4.034,2.018 1.008,11.096 7.06,12.104Zm27.234,-583.002c1.009,9.078 -6.052,32.277 -14.121,41.355c6.052,-13.113 7.06,-30.26 14.121,-41.355Zm51.441,319.743c18.156,-14.121 36.312,-29.251 51.442,-47.406c3.026,2.017 -3.026,6.052 -4.035,7.06c1.009,3.026 4.035,-4.034 6.052,-4.034c-10.086,12.103 -34.294,33.285 -53.459,44.38Zm105.909,-110.952c-4.034,12.104 -17.147,26.225 -31.268,34.295c7.06,-9.078 14.121,-19.165 22.19,-27.234c-6.052,0 6.052,-4.035 7.061,-9.078c-9.078,6.052 8.069,-9.078 9.078,-14.121c1.008,5.043 -8.069,12.104 -11.095,18.156c3.026,0 4.034,-1.009 4.034,-2.018Zm173.489,-333.864c-1.009,54.467 -77.667,205.765 -126.082,264.267c19.164,-15.13 36.312,-44.381 52.45,-65.562c-23.199,40.346 -60.519,79.683 -90.779,118.012c0,-3.026 1.009,-4.034 2.017,-5.043c1.009,-2.017 3.026,-7.061 6.052,-8.069c-11.095,5.043 -27.233,27.233 -41.355,41.355c-16.138,16.138 -32.276,31.268 -43.372,43.372c-4.034,4.034 3.026,2.017 0,6.052c-13.112,8.069 -27.233,16.138 -37.32,27.233c1.009,-1.008 -34.294,30.26 -63.545,40.347c-5.043,1.008 -15.13,-10.087 -15.13,-16.139c1.009,-41.355 6.052,-80.692 9.078,-121.039c-3.026,9.078 -4.035,21.182 -6.052,32.277c-4.035,-2.017 2.017,-5.043 0,-9.077c-2.017,0 -1.009,2.017 -2.017,4.034c-3.026,-11.095 1.008,-29.251 0,-31.268c1.008,-8.069 3.026,-13.113 2.017,-16.139c3.026,-7.06 1.009,-18.155 2.017,-32.277c3.026,-20.173 12.104,-42.363 17.147,-63.545c6.052,-22.19 9.078,-43.372 19.165,-53.459c2.017,2.018 2.017,5.044 1.009,10.087c-5.044,21.182 -14.122,44.381 -20.174,69.597c-5.043,25.217 -10.086,51.442 -11.095,77.667c27.234,-113.978 48.416,-231.991 118.013,-316.718c18.156,-22.19 39.337,-44.381 63.545,-65.563c25.216,-20.173 63.545,-49.424 102.883,-44.38c37.32,5.043 62.536,64.554 61.528,113.978Z" style="fill-rule:nonzero;"/><path d="M179.615,1807.51c1.009,-3.026 1.009,-4.034 2.018,-6.051c13.112,-16.139 26.225,-32.277 35.303,-51.442c1.008,-1.009 3.026,-3.026 4.034,-5.043c2.017,-2.017 3.026,-3.026 5.043,-5.043c2.018,-2.018 4.035,-4.035 7.061,-6.052c12.104,-11.096 25.216,-21.182 34.294,-33.286c2.018,-2.017 3.026,-4.035 5.044,-6.052c8.069,-8.069 16.138,-17.147 23.199,-26.225c3.026,-2.017 5.043,-5.043 7.06,-8.069c22.191,-24.208 43.372,-48.416 63.545,-74.641c2.018,-3.026 4.035,-6.052 6.052,-9.078c8.07,-11.095 15.13,-22.19 23.199,-33.285c1.009,-2.017 3.026,-5.043 4.035,-7.061c5.043,-8.069 10.087,-15.13 15.13,-22.19c2.017,-2.017 3.026,-4.035 5.043,-6.052c2.017,-2.017 3.026,-4.035 5.043,-6.052c9.078,-10.087 18.156,-20.173 25.217,-32.277c2.017,-2.017 4.034,-5.043 5.043,-7.061c15.13,-23.199 30.26,-48.415 42.364,-73.631c2.017,-3.026 3.026,-5.044 4.034,-8.07c7.061,-12.103 12.104,-25.216 16.139,-37.32c1.008,-4.034 2.017,-7.06 3.026,-10.086c6.052,-23.199 12.104,-47.407 14.121,-70.606l0,-11.095c-2.017,-24.208 -5.043,-50.433 -16.139,-72.624c-3.026,-5.043 -7.06,-11.095 -11.095,-16.138c-11.095,-17.147 -25.216,-37.32 -44.381,-47.407c-2.017,-1.008 -5.043,-2.017 -8.069,-4.034c-16.138,-4.035 -33.286,-9.078 -50.433,-11.096c-3.026,-1.008 -7.06,-1.008 -10.086,-1.008c-14.121,-1.009 -28.243,6.052 -39.338,12.104c-6.052,3.026 -11.095,6.052 -16.138,10.086c-8.069,6.052 -16.139,13.113 -22.191,19.165c-2.017,2.017 -4.034,4.034 -6.052,6.052c-17.147,17.147 -35.302,42.363 -45.389,57.493c-34.294,49.424 -99.857,147.263 -125.073,205.765c-32.277,73.632 -54.468,147.264 -65.563,227.956c-17.147,128.1 -26.225,255.19 9.078,380.263c10.087,36.312 34.294,65.563 44.381,101.874c2.017,3.026 4.035,6.052 6.052,10.087c6.052,8.069 13.112,16.138 21.182,24.208c2.017,3.026 5.043,5.043 7.06,8.069c13.113,10.086 26.225,21.182 40.346,29.251c3.026,2.017 6.052,3.026 9.078,5.043c6.052,3.026 13.113,5.043 19.165,5.043c8.069,0 15.13,2.018 23.199,2.018l11.095,0c3.026,0 7.061,0 10.087,-1.009c22.19,-3.026 40.346,-13.112 53.458,-28.242c2.018,-2.018 5.044,-5.043 7.061,-8.069c8.069,-13.113 14.121,-27.234 18.156,-43.373c0,-3.026 1.008,-6.052 2.017,-9.078c1.009,-7.06 2.017,-13.112 2.017,-20.173c1.009,-6.052 1.009,-11.095 1.009,-17.147l0,-29.251c-2.017,-19.164 -2.017,-16.138 -2.017,-35.303l0,2.018c1.008,-13.113 -6.052,-25.217 -10.087,-37.321c-1.009,-2.017 -3.026,-5.043 -4.035,-7.06c-3.026,-7.061 -7.06,-14.121 -11.095,-21.182c-2.017,-3.026 -4.034,-6.052 -6.052,-9.078c-6.052,-8.069 -12.104,-15.13 -19.164,-23.199c-2.017,-2.017 -5.043,-4.034 -7.061,-7.06c-7.06,-5.044 -14.121,-11.096 -21.182,-16.139c-2.017,-2.017 -5.043,-3.026 -7.06,-5.043c-15.13,-9.078 -29.251,-19.165 -43.372,-30.26c11.095,-3.026 22.19,-2.017 32.277,-7.06c2.017,-1.009 4.034,-1.009 6.052,-2.018c3.026,-1.008 5.043,-2.017 7.06,-3.026c7.061,-3.026 14.121,-6.052 21.182,-8.069c3.026,-1.009 6.052,-3.026 10.087,-4.035c3.025,-1.008 6.051,-2.017 9.077,-4.034c3.026,-1.009 7.061,-2.017 10.087,-3.026c21.182,-5.043 41.355,-13.113 61.528,-22.191c6.052,-3.025 12.104,-7.06 19.164,-11.095c5.044,-4.034 11.096,-7.06 17.147,-11.095c6.052,-4.035 12.104,-7.061 18.156,-11.095c3.026,-2.017 5.044,-4.035 8.07,-6.052c2.017,-2.017 5.043,-4.035 7.06,-6.052c22.19,-23.199 45.39,-50.433 48.416,-81.701c0,-2.017 -7.061,-6.052 -13.113,-6.052c-2.017,0 -6.052,-4.035 -8.069,-1.009c-19.165,17.148 -28.243,41.355 -47.407,56.485c-2.017,2.017 -4.035,4.035 -6.052,6.052c-4.035,3.026 -75.649,38.329 -82.71,40.346c-13.112,4.035 -27.233,7.061 -41.354,13.113c-2.018,1.008 -5.044,2.017 -8.07,3.026c-3.026,1.008 -5.043,3.026 -8.069,4.034c1.009,-1.008 4.035,-5.043 5.043,-6.052c-3.026,0 -9.078,0 -12.104,2.018c-18.155,7.06 -79.683,21.181 -92.796,20.173c-3.026,0 -6.052,-1.009 -9.078,-2.018Zm246.112,-697.989c3.026,0 6.052,2.018 8.069,3.026c2.018,3.026 5.044,5.044 8.07,4.035c-8.07,-1.009 -16.139,-1.009 -24.208,-2.017l-8.069,0c-11.096,0 -22.191,0 -33.286,3.026c7.061,-5.044 16.138,-6.052 25.216,-4.035c-1.008,-1.009 -2.017,-2.017 0,-3.026c4.035,-1.009 8.07,-1.009 12.104,-1.009l12.104,0Zm-227.956,622.34c-2.017,3.026 -10.086,1.009 -12.104,1.009c-4.034,0 -6.052,-3.026 -7.06,-6.052l0,-9.078c-1.009,-2.017 -1.009,-5.043 -1.009,-7.06c0,-7.061 3.026,-24.208 3.026,-31.269c0,-3.026 0,-24.207 1.009,-26.225c-1.009,-5.043 1.008,-11.095 1.008,-16.138c-6.052,1.008 -4.034,27.233 -9.078,29.251l1.009,0c-3.026,1.008 -1.009,4.034 -3.026,6.052l0,-9.078c1.009,-27.234 4.035,-54.468 10.087,-81.701c1.008,-3.026 2.017,-6.052 2.017,-9.078c5.043,-16.139 9.078,-31.268 13.112,-47.407c1.009,-3.026 2.018,-6.052 3.026,-9.078c8.07,-30.259 19.165,-58.502 30.26,-87.753c1.009,-3.026 3.026,-6.052 4.035,-9.078c3.026,-8.069 6.052,-16.138 10.086,-23.199l-1.008,0c4.034,-10.086 8.069,-20.173 12.103,-30.259c2.018,-3.026 3.026,-6.052 5.044,-10.087c5.043,-12.104 11.095,-24.208 17.147,-36.311c2.017,-3.026 4.034,-6.052 5.043,-9.078c9.078,-14.122 18.156,-27.234 27.234,-41.355c2.017,-3.026 4.034,-5.044 6.052,-8.069c10.086,-14.122 22.19,-28.243 34.294,-40.347c3.026,-3.026 5.043,-5.043 8.069,-8.069c14.121,-12.104 28.243,-24.208 45.39,-32.277c2.017,-2.017 5.043,-3.026 7.06,-4.034l20.173,-6.052c17.148,-8.07 33.286,4.034 42.364,19.164c2.017,3.026 4.034,6.052 6.052,9.078c8.069,13.112 11.095,27.234 14.121,41.355c0,4.034 1.009,7.06 1.009,10.086c2.017,19.165 1.008,38.329 -2.018,56.485c0,3.026 -1.008,6.052 -2.017,9.078c-3.026,15.13 -7.061,30.26 -14.121,45.389c0,0 1.008,2.018 0,2.018c-1.009,1.008 -3.026,6.052 -4.035,10.086c-14.121,25.217 -25.216,51.442 -41.355,75.649c-2.017,3.026 -3.026,6.052 -5.043,8.07c-7.06,11.095 -13.112,21.181 -20.173,31.268c-2.017,3.026 -4.035,6.052 -6.052,9.078c-6.052,8.069 -12.104,16.138 -18.156,24.207c-2.017,3.026 -4.034,5.044 -7.06,8.07c-6.052,8.069 -12.104,16.138 -18.156,24.207c-3.026,3.026 -5.043,5.044 -7.061,8.07c-22.19,31.268 -50.432,56.484 -72.623,86.744c-2.017,2.017 -7.06,8.069 -8.069,9.078c-2.017,2.017 -5.043,5.043 -8.069,8.069c-3.026,4.035 -6.052,7.061 -9.078,10.087c-2.017,2.017 -3.026,4.034 -5.043,5.043c-10.087,12.104 -29.251,34.294 -41.355,45.389c-2.018,2.018 -5.044,4.035 -7.061,6.052Zm61.528,-484.154c-2.017,-2.017 2.017,-1.009 1.009,-3.026c-6.052,16.139 -15.13,32.277 -30.26,41.355c9.078,-13.113 15.13,-29.251 29.251,-38.329Zm-77.666,548.708c1.008,0 2.017,4.035 -2.018,4.035c0,-1.009 1.009,-3.026 2.018,-4.035Zm-14.122,182.567c-1.008,-2.018 -2.017,-4.035 -2.017,-7.061c-1.009,-3.026 -2.017,-7.06 -2.017,-11.095c-1.009,-3.026 -1.009,-7.061 -1.009,-10.087c-2.017,2.018 -2.017,5.044 -2.017,8.07l0,8.069c-1.009,-3.026 -1.009,-6.052 -1.009,-10.087c-2.017,-16.138 -3.026,-32.277 -3.026,-48.415c-1.008,-5.043 11.095,-18.156 19.165,-17.147c11.095,0 23.199,0 34.294,5.043c1.009,0 -5.043,-5.043 -5.043,-6.052c3.026,1.009 12.104,5.043 15.13,6.052c3.025,1.009 6.051,3.026 9.077,4.035c24.208,12.104 43.373,29.251 61.528,49.424c2.018,3.026 4.035,6.052 6.052,8.069c8.07,13.113 13.113,27.234 17.147,41.355c1.009,3.026 1.009,6.052 2.018,9.078c3.026,13.112 3.026,25.216 4.034,38.329l0,28.242c-1.008,4.035 -1.008,7.061 -2.017,11.095c-4.035,13.113 -10.087,25.217 -22.19,35.303c-5.044,3.026 -11.096,6.052 -17.148,8.069c-12.103,4.035 -26.225,3.026 -37.32,-4.034c-3.026,-1.009 -6.052,-3.026 -8.069,-5.044c-16.138,-13.112 -27.234,-32.277 -30.26,-52.45c-1.008,-3.026 -2.017,-7.06 -3.026,-10.086c-3.026,-10.087 -7.06,-20.173 -12.103,-28.243c-1.009,-2.017 -2.018,-5.043 -3.026,-8.069c-6.052,-14.121 -12.104,-28.242 -17.148,-42.363Zm-7.06,-5.044c0,-1.008 1.009,-4.034 -1.009,-4.034c1.009,0 1.009,-1.009 2.018,-1.009c2.017,13.113 7.06,25.217 11.095,37.32c-8.07,-9.077 -8.07,-21.181 -12.104,-32.277Zm190.636,68.589c0,-1.009 -1.009,-16.138 -2.018,-20.173c3.026,11.095 5.044,36.311 5.044,48.415c1.008,3.026 1.008,5.044 0,8.07c0,6.052 0,11.095 -1.009,16.138c0,-16.138 -4.035,-15.13 -6.052,-23.199c0,3.026 -1.009,5.043 -2.017,8.069c-1.009,-4.034 -1.009,-7.06 -1.009,-10.086c2.017,-10.087 2.017,-20.173 0,-30.26c6.052,0 3.026,7.061 5.043,10.087c1.009,-2.018 3.026,-4.035 2.018,-7.061Z" style="fill-rule:nonzero;"/><path d="M855.414,1673.36c-2.017,-1.008 -3.026,0 -4.035,2.018c-4.034,-1.009 -6.052,5.043 -8.069,6.052c-14.121,16.138 -26.225,32.277 -43.372,44.38c-2.017,2.018 -4.035,4.035 -6.052,5.044c-8.069,9.078 -16.138,18.155 -26.225,25.216c-3.026,2.017 -5.043,2.017 -7.061,3.026c-3.025,0 -6.051,0 -8.069,-1.009c-4.034,-1.008 -5.043,-4.034 -4.034,-9.078c2.017,-14.121 5.043,-29.251 8.069,-43.372c0,-3.026 1.009,-6.052 1.009,-9.078c2.017,-6.052 3.025,-12.103 3.025,-18.155c1.009,-3.026 1.009,-6.052 1.009,-9.078c2.017,-28.243 3.026,-58.502 -13.112,-83.719c-3.026,3.026 4.034,7.061 0,10.087c-2.018,-5.043 0,-10.087 -4.035,-14.121c-1.009,-2.018 -1.009,-4.035 -2.017,-7.061c-1.009,-2.017 -2.018,-4.034 -2.018,-7.06c3.026,3.026 3.026,7.06 6.052,9.077c-3.026,-12.103 -9.078,-23.199 -15.129,-34.294c-2.018,-2.017 -3.026,-4.034 -5.044,-6.052c-5.043,-7.06 -11.095,-15.13 -17.147,-22.19c-2.017,-2.017 -4.035,-4.035 -6.052,-6.052c-23.199,-24.208 -53.459,-39.338 -85.735,-45.39c-3.026,0 -7.061,0 -10.087,-1.008c-26.225,-1.009 -53.459,7.06 -73.632,25.216c-2.017,2.018 -4.034,5.043 -6.052,7.061c-2.017,2.017 -4.034,4.034 -6.052,6.052c-4.034,5.043 -7.06,10.086 -11.095,15.13c-5.043,7.06 -11.095,14.121 -16.138,22.19c-1.009,3.026 -3.026,5.043 -4.035,8.069c-11.095,18.156 -16.138,39.338 -19.164,60.519c0,3.026 -1.009,6.052 -1.009,9.078c-2.017,9.078 -2.017,18.156 -1.009,27.234c0,3.026 1.009,6.052 1.009,9.078c2.017,9.078 4.035,18.156 7.06,27.234c1.009,3.026 2.018,6.052 3.026,9.078c4.035,6.051 6.052,13.112 9.078,20.173c1.009,3.026 2.018,5.043 3.026,7.06c9.078,14.121 4.035,30.26 -9.078,32.277c-19.164,5.043 -35.302,22.191 -42.363,39.338c-1.009,2.017 -2.017,4.034 -3.026,7.06c-4.035,13.113 -9.078,27.234 -12.104,40.346c-1.009,4.035 -2.017,7.061 -3.026,10.087c-2.017,18.156 -4.034,36.312 -4.034,54.467l0,11.096c2.017,16.138 4.034,34.294 8.069,52.45c1.008,3.026 2.017,7.06 3.026,10.086c5.043,15.13 32.277,47.407 37.32,48.416c3.026,1.008 6.052,3.026 9.078,4.034c3.026,2.018 7.06,3.026 10.086,5.043c12.104,6.052 24.208,11.096 37.321,13.113l8.069,0c23.199,3.026 45.389,-2.017 64.554,-13.113c4.034,-2.017 7.06,-4.034 10.086,-6.051c15.13,-10.087 27.234,-23.199 38.329,-38.329c2.018,-2.018 4.035,-5.044 6.052,-8.07c4.035,-6.051 8.069,-12.103 12.104,-18.155c3.026,-7.061 7.061,-13.113 10.087,-19.165c9.077,-17.147 16.138,-34.294 24.207,-51.441c2.018,-6.052 5.044,-11.095 7.061,-17.147c4.034,-6.052 5.043,-12.104 9.078,-17.147c3.026,-3.026 32.277,-31.269 34.294,-33.286c11.095,-12.104 25.216,-21.182 37.32,-32.277c2.018,-2.017 4.035,-4.035 7.061,-6.052c7.06,-9.078 16.138,-17.147 23.199,-25.216c2.017,-3.026 4.034,-5.044 6.052,-7.061c7.06,-7.06 10.086,-16.138 15.13,-23.199c-5.044,-1.009 -3.026,7.061 -8.07,6.052c11.096,-17.147 27.234,-30.26 33.286,-50.433c1.009,-4.034 -1.009,-8.069 -6.052,-9.078Zm-156.341,91.788c-3.026,7.061 -6.052,14.121 -11.096,18.156c-7.06,1.008 -14.121,1.008 -20.173,0c-3.026,-1.009 -7.06,-1.009 -10.086,-2.018c-32.277,-4.034 -58.502,-24.207 -80.693,-48.415c-2.017,-2.017 -3.026,-4.035 -5.043,-6.052c-1.009,-3.026 -2.017,-5.043 -3.026,-8.069c0,-1.009 -1.009,3.026 -2.017,3.026c-1.009,-1.009 -2.018,-2.018 -3.026,-4.035c0,-3.026 1.008,-7.06 0,-10.086c-7.061,-12.104 -12.104,-23.199 -15.13,-36.312c-1.009,-3.026 -2.017,-5.043 -3.026,-7.061c-3.026,-11.095 -3.026,-22.19 -4.035,-35.302l0,-9.078c2.018,-13.113 6.052,-27.234 9.078,-40.347c1.009,-3.026 2.018,-6.051 3.026,-9.077c2.018,-5.044 4.035,-9.078 6.052,-13.113c2.017,-2.017 3.026,-4.035 5.043,-6.052c17.148,-17.147 40.347,-30.26 65.563,-28.242c3.026,0 6.052,0 9.078,1.008c16.138,2.018 31.268,8.07 44.381,18.156c2.017,2.018 4.034,4.035 7.06,6.052c6.052,6.052 12.104,14.121 16.139,22.191c2.017,3.026 3.026,6.051 5.043,10.086c10.087,29.251 11.095,62.537 7.061,94.814c-1.009,2.017 -1.009,5.043 -1.009,7.06c0,3.026 -1.009,6.052 -1.009,8.069c0,3.026 -1.008,6.052 -1.008,10.087c-2.018,15.13 -4.035,30.26 -9.078,45.389c0,1.009 -1.009,5.044 -2.018,7.061c-2.017,2.017 -4.034,8.069 -6.051,12.104Zm31.268,-105.909l0,-7.06c0,-6.052 5.043,-10.087 4.034,-16.139c1.009,14.121 1.009,27.234 -2.017,41.355c0,3.026 -1.008,6.052 -1.008,8.069c0,3.026 -1.009,6.052 -1.009,8.069l-6.052,18.156l0,-35.303c2.017,-6.052 0,-13.112 4.035,-19.164c1.008,1.009 1.008,1.009 2.017,2.017Zm-140.203,151.298c-2.017,-1.008 -4.035,-4.034 -5.043,-5.043l0,-1.009c10.086,4.035 20.173,4.035 27.233,12.104c-9.078,1.009 -15.13,-2.017 -22.19,-6.052Zm-15.13,175.506c-1.009,1.009 -3.026,2.018 -5.043,3.026c-10.087,3.026 -20.173,0 -27.234,-7.06c-1.009,-1.009 -3.026,-3.026 -4.035,-5.044c-7.06,-35.302 -18.155,-72.623 -4.034,-107.926c1.008,-3.026 1.008,-7.06 3.026,-10.086c7.06,-15.13 7.06,-36.312 23.199,-44.381c3.026,-1.009 6.052,-1.009 10.086,0c16.139,4.035 30.26,18.156 47.407,17.147c12.104,0 23.199,3.026 32.277,9.078c3.026,2.017 6.052,6.052 10.087,7.061c2.017,2.017 4.034,4.034 3.026,7.06c0,1.009 2.017,1.009 3.026,1.009c-1.009,25.216 -15.13,46.398 -26.225,67.58c-4.035,6.052 -8.07,12.104 -13.113,17.147c-4.035,6.052 -8.069,11.095 -13.112,16.138c-2.018,2.018 -5.044,5.044 -7.061,7.061c-10.087,8.069 -20.173,16.138 -32.277,22.19Zm21.182,-166.428c10.086,-1.008 22.19,0 27.233,9.078l-27.233,-9.078Zm-147.264,76.658c0,-3.026 1.009,-6.052 1.009,-9.078c0,-14.121 4.034,-27.234 4.034,-41.355c4.035,17.147 1.009,34.295 -1.008,51.442c0,4.034 0,7.06 -1.009,11.095c1.009,7.06 -2.017,14.121 0,21.182c-4.034,-7.061 -4.034,-17.147 -2.017,-25.217c0,-3.026 0,-6.052 -1.009,-8.069Zm11.095,-11.095c0,-4.035 2.018,-8.069 1.009,-11.095c2.017,8.069 3.026,16.138 4.035,25.216l0,8.069c-1.009,9.078 0,17.147 2.017,25.217c1.009,3.026 1.009,6.052 2.017,8.069c1.009,6.052 3.026,11.095 4.035,17.147c2.017,6.052 4.034,12.104 6.052,17.147c-4.035,-4.034 -8.069,-9.078 -10.087,-14.121c-3.026,-5.043 -5.043,-11.095 -6.052,-17.147c0,-2.017 -1.008,-5.043 -2.017,-8.069c-1.009,-9.078 -2.017,-17.148 -4.035,-25.217l0,-9.078c0,-4.034 0,-7.06 1.009,-10.086c2.017,2.017 0,4.034 1.009,6.052c2.017,-4.035 1.008,-8.07 1.008,-12.104Zm114.987,-607.21c-5.043,-25.217 -30.26,-11.096 -36.312,6.052c-12.103,0 -14.121,15.129 -20.173,28.242c-1.008,3.026 -4.034,5.043 -5.043,7.061c-2.017,10.086 5.043,20.173 6.052,31.268c11.095,7.06 18.156,19.164 32.277,18.156c13.112,-1.009 37.32,-24.208 47.407,-37.321c3.026,-5.043 4.034,-14.121 5.043,-20.173c-2.017,-2.017 -4.035,1.009 -4.035,-1.008c2.018,-4.035 -1.008,-6.052 -3.026,-8.07c0,-2.017 2.018,-3.026 2.018,-5.043c-10.087,-10.086 -14.121,-14.121 -24.208,-23.199c-1.009,2.017 3.026,3.026 0,4.035Zm22.19,53.458c-1.008,-2.017 1.009,-8.069 2.018,-10.086c3.026,3.026 -1.009,7.06 -2.018,10.086Zm124.065,-53.458c-5.043,-25.217 -30.26,-11.096 -36.312,6.052c-12.103,0 -14.121,15.129 -20.173,28.242c-1.008,3.026 -4.034,5.043 -5.043,7.061c-2.017,10.086 5.043,20.173 6.052,31.268c11.095,7.06 18.156,19.164 32.277,18.156c13.112,-1.009 37.32,-24.208 47.407,-37.321c3.026,-5.043 4.034,-14.121 5.043,-20.173c-2.017,-2.017 -4.035,1.009 -4.035,-1.008c2.018,-4.035 -1.008,-6.052 -3.026,-8.07c0,-2.017 2.018,-3.026 2.018,-5.043c-10.087,-10.086 -14.121,-14.121 -24.208,-23.199c-1.009,2.017 3.026,3.026 0,4.035Zm22.19,53.458c-1.008,-2.017 1.009,-8.069 2.018,-10.086c3.026,3.026 -1.009,7.06 -2.018,10.086Z" style="fill-rule:nonzero;"/><path d="M882.648,1315.29c-3.026,0 -7.061,1.009 -11.095,1.009c-5.044,1.008 -9.078,3.026 -13.113,6.051c-13.113,12.104 -23.199,26.225 -32.277,42.364c-4.035,5.043 -7.061,10.087 -10.086,15.13c-14.122,22.19 -24.208,47.407 -34.295,71.614c-1.008,6.052 -3.026,11.095 -5.043,17.147c-6.052,17.148 -11.095,35.303 -16.139,53.459c-1.008,3.026 -1.008,6.052 -2.017,10.087c-6.052,26.225 -10.086,53.458 -7.06,80.692c0,2.017 -1.009,4.035 -1.009,6.052c-1.009,2.017 -2.017,4.035 -2.017,6.052c1.008,25.216 15.129,45.389 33.285,62.537c2.018,2.017 5.044,5.043 8.069,7.06c13.113,10.087 27.234,20.173 41.355,29.251c3.026,1.009 6.052,3.026 9.078,5.043c12.104,7.061 27.234,13.113 40.346,19.165c3.026,2.017 6.052,4.034 9.078,6.052c21.182,9.078 21.182,27.233 15.13,45.389c-1.009,4.035 -3.026,7.061 -5.043,11.095c-2.017,7.061 -7.061,14.122 -10.087,21.182c-3.026,11.095 -5.043,21.182 -8.069,32.277c-1.009,4.035 -1.009,7.061 -2.017,11.095c-3.026,6.052 -6.052,12.104 -9.078,19.165c-1.009,3.026 -2.017,6.052 -4.035,10.086c-16.138,46.398 -28.242,95.823 -36.311,146.255c0,4.035 -1.009,8.069 -1.009,12.104c-4.035,18.156 -6.052,37.32 -8.069,56.485c0,-1.009 -1.009,-2.018 -1.009,-3.026c-1.009,4.034 -1.009,7.06 -2.017,10.086l0,10.087c3.026,30.26 45.389,91.787 76.658,98.848c3.026,0 6.052,1.009 9.077,2.017c16.139,3.026 31.269,3.026 46.399,1.009c4.034,-1.009 7.06,-2.017 10.086,-2.017c26.225,-2.018 71.615,-40.346 79.684,-60.52c1.009,-3.026 2.017,-6.051 3.026,-9.077c1.008,-3.026 2.017,-6.052 4.034,-9.078c8.07,-30.26 16.139,-57.494 28.243,-84.727c1.008,-3.026 2.017,-6.052 4.034,-9.078c6.052,-17.147 13.113,-34.295 18.156,-51.442c1.009,-3.026 2.018,-6.052 4.035,-10.086c6.052,-16.139 13.112,-33.286 17.147,-50.433c1.009,-3.026 2.017,-6.052 3.026,-10.086c4.035,-13.113 9.078,-27.234 14.121,-40.347c1.009,-3.026 2.017,-6.052 4.035,-10.086c7.06,-15.13 27.233,-84.727 33.285,-100.866c1.009,-3.026 3.026,-6.052 4.035,-9.078c12.104,-32.277 28.242,-61.528 37.32,-94.813c1.009,-5.043 -2.017,-10.087 -7.06,-11.095c-8.07,-2.018 -21.182,-8.07 -24.208,-5.044c-16.139,22.191 -18.156,47.407 -32.277,69.598c2.017,0 4.035,-2.018 6.052,-3.026c-5.043,6.052 -7.061,14.121 -11.095,21.181c-1.009,4.035 -3.026,7.061 -4.035,10.087c-8.069,27.234 -46.398,146.255 -40.346,119.021c-6.052,16.139 -9.078,31.268 -18.156,47.407c-2.017,3.026 -3.026,6.052 -5.043,9.078c-7.061,15.13 -12.104,30.259 -19.165,46.398c-1.008,3.026 -2.017,6.052 -3.026,9.078c-6.052,18.156 -15.129,36.311 -22.19,54.467c-1.009,3.026 -2.017,6.052 -3.026,9.078c-4.035,10.087 -7.061,19.165 -11.095,28.242c-1.009,3.026 -2.018,6.052 -3.026,9.078c-5.043,15.13 -11.095,32.277 -20.173,47.407c-2.018,3.026 -4.035,5.043 -6.052,8.069c-9.078,15.13 -29.251,21.182 -44.381,16.139c-3.026,-1.009 -6.052,-3.026 -8.069,-5.043c-14.121,-26.225 -11.095,-55.476 -5.044,-83.719c1.009,-4.034 2.018,-7.06 3.026,-11.095c2.018,-17.147 7.061,-34.294 11.096,-50.433c1.008,-3.026 2.017,-7.06 3.026,-10.086c6.052,-20.173 11.095,-40.346 15.129,-60.52c1.009,-4.034 1.009,-7.06 2.018,-10.086c5.043,-18.156 8.069,-36.312 11.095,-54.467c0,-3.026 1.009,-7.061 1.009,-10.087c5.043,-31.268 19.164,-63.545 12.103,-93.805c-1.008,-3.026 -2.017,-6.052 -3.026,-10.086c-7.06,-11.096 -12.103,-24.208 -19.164,-34.295c-4.035,-6.052 -7.061,-11.095 -12.104,-15.13c-26.225,-20.173 -51.441,-41.354 -71.614,-67.579c0,-2.018 0,-4.035 -1.009,-5.044c4.035,-16.138 9.078,-32.277 14.121,-48.415c1.009,-4.035 2.018,-7.061 3.026,-10.087c1.009,-4.034 2.017,-7.06 3.026,-11.095c1.009,-3.026 2.017,-6.052 3.026,-10.086c4.035,-21.182 12.104,-42.364 16.139,-63.546c0,-3.026 1.008,-6.052 1.008,-9.078c-1.008,-21.181 1.009,-42.363 1.009,-62.536c1.009,-4.035 1.009,-7.061 1.009,-10.087c0,-14.121 1.008,-28.242 0,-41.355c0,-4.034 0,-7.06 -1.009,-10.086c-2.017,-27.234 -22.191,-45.39 -43.372,-58.502Zm-2.018,173.489c1.009,-2.018 2.018,-5.044 2.018,-7.061c5.043,-14.121 5.043,-30.26 13.112,-43.372c0,18.156 -1.008,36.311 -5.043,54.467c-1.009,4.035 -1.009,7.061 -2.017,11.095c-4.035,18.156 -10.087,36.312 -14.122,54.468c-1.008,3.026 -2.017,6.052 -3.025,9.078c-1.009,5.043 -3.026,11.095 -4.035,17.147c-1.009,-8.07 -1.009,-17.147 1.009,-26.225c0,-3.026 0,-6.052 1.008,-9.078c3.026,-16.139 7.061,-33.286 10.087,-50.433c1.008,-3.026 1.008,-6.052 1.008,-10.086Zm-20.173,475.076c-1.008,-2.017 12.104,-52.45 13.113,-54.467c2.017,-4.035 1.008,-7.061 8.069,-7.061c-3.026,7.061 -18.156,54.467 -21.182,61.528Z" style="fill-rule:nonzero;"/><path d="M1522.13,1807.51c1.009,-3.026 1.009,-4.034 2.017,-6.051c13.113,-16.139 26.225,-32.277 35.303,-51.442c1.009,-1.009 3.026,-3.026 4.035,-5.043c2.017,-2.017 3.026,-3.026 5.043,-5.043c2.017,-2.018 4.035,-4.035 7.061,-6.052c12.103,-11.096 25.216,-21.182 34.294,-33.286c2.017,-2.017 3.026,-4.035 5.043,-6.052c8.069,-8.069 16.139,-17.147 23.199,-26.225c3.026,-2.017 5.043,-5.043 7.061,-8.069c22.19,-24.208 43.372,-48.416 63.545,-74.641c2.017,-3.026 4.035,-6.052 6.052,-9.078c8.069,-11.095 15.13,-22.19 23.199,-33.285c1.009,-2.017 3.026,-5.043 4.035,-7.061c5.043,-8.069 10.086,-15.13 15.129,-22.19c2.018,-2.017 3.026,-4.035 5.044,-6.052c2.017,-2.017 3.026,-4.035 5.043,-6.052c9.078,-10.087 18.156,-20.173 25.216,-32.277c2.018,-2.017 4.035,-5.043 5.044,-7.061c15.129,-23.199 30.259,-48.415 42.363,-73.631c2.017,-3.026 3.026,-5.044 4.035,-8.07c7.06,-12.103 12.104,-25.216 16.138,-37.32c1.009,-4.034 2.018,-7.06 3.026,-10.086c6.052,-23.199 12.104,-47.407 14.121,-70.606l0,-11.095c-2.017,-24.208 -5.043,-50.433 -16.138,-72.624c-3.026,-5.043 -7.061,-11.095 -11.095,-16.138c-11.096,-17.147 -25.217,-37.32 -44.381,-47.407c-2.017,-1.008 -5.043,-2.017 -8.069,-4.034c-16.139,-4.035 -33.286,-9.078 -50.433,-11.096c-3.026,-1.008 -7.061,-1.008 -10.087,-1.008c-14.121,-1.009 -28.242,6.052 -39.337,12.104c-6.052,3.026 -11.095,6.052 -16.139,10.086c-8.069,6.052 -16.138,13.113 -22.19,19.165c-2.017,2.017 -4.035,4.034 -6.052,6.052c-17.147,17.147 -35.303,42.363 -45.389,57.493c-34.295,49.424 -99.857,147.263 -125.074,205.765c-32.277,73.632 -54.467,147.264 -65.562,227.956c-17.147,128.1 -26.225,255.19 9.078,380.263c10.086,36.312 34.294,65.563 44.38,101.874c2.018,3.026 4.035,6.052 6.052,10.087c6.052,8.069 13.113,16.138 21.182,24.208c2.017,3.026 5.043,5.043 7.061,8.069c13.112,10.086 26.225,21.182 40.346,29.251c3.026,2.017 6.052,3.026 9.078,5.043c6.052,3.026 13.112,5.043 19.164,5.043c8.07,0 15.13,2.018 23.199,2.018l11.096,0c3.026,0 7.06,0 10.086,-1.009c22.19,-3.026 40.346,-13.112 53.459,-28.242c2.017,-2.018 5.043,-5.043 7.06,-8.069c8.07,-13.113 14.122,-27.234 18.156,-43.373c0,-3.026 1.009,-6.052 2.017,-9.078c1.009,-7.06 2.018,-13.112 2.018,-20.173c1.008,-6.052 1.008,-11.095 1.008,-17.147l0,-29.251c-2.017,-19.164 -2.017,-16.138 -2.017,-35.303l0,2.018c1.009,-13.113 -6.052,-25.217 -10.086,-37.321c-1.009,-2.017 -3.026,-5.043 -4.035,-7.06c-3.026,-7.061 -7.061,-14.121 -11.095,-21.182c-2.018,-3.026 -4.035,-6.052 -6.052,-9.078c-6.052,-8.069 -12.104,-15.13 -19.165,-23.199c-2.017,-2.017 -5.043,-4.034 -7.06,-7.06c-7.061,-5.044 -14.121,-11.096 -21.182,-16.139c-2.017,-2.017 -5.043,-3.026 -7.061,-5.043c-15.129,-9.078 -29.251,-19.165 -43.372,-30.26c11.096,-3.026 22.191,-2.017 32.277,-7.06c2.018,-1.009 4.035,-1.009 6.052,-2.018c3.026,-1.008 5.043,-2.017 7.061,-3.026c7.06,-3.026 14.121,-6.052 21.182,-8.069c3.025,-1.009 6.051,-3.026 10.086,-4.035c3.026,-1.008 6.052,-2.017 9.078,-4.034c3.026,-1.009 7.061,-2.017 10.087,-3.026c21.181,-5.043 41.354,-13.113 61.527,-22.191c6.052,-3.025 12.104,-7.06 19.165,-11.095c5.043,-4.034 11.095,-7.06 17.147,-11.095c6.052,-4.035 12.104,-7.061 18.156,-11.095c3.026,-2.017 5.043,-4.035 8.069,-6.052c2.017,-2.017 5.043,-4.035 7.061,-6.052c22.19,-23.199 45.389,-50.433 48.415,-81.701c0,-2.017 -7.061,-6.052 -13.112,-6.052c-2.018,0 -6.052,-4.035 -8.07,-1.009c-19.164,17.148 -28.242,41.355 -47.406,56.485c-2.018,2.017 -4.035,4.035 -6.052,6.052c-4.035,3.026 -75.649,38.329 -82.71,40.346c-13.113,4.035 -27.234,7.061 -41.355,13.113c-2.017,1.008 -5.043,2.017 -8.069,3.026c-3.026,1.008 -5.043,3.026 -8.069,4.034c1.008,-1.008 4.034,-5.043 5.043,-6.052c-3.026,0 -9.078,0 -12.104,2.018c-18.156,7.06 -79.684,21.181 -92.796,20.173c-3.026,0 -6.052,-1.009 -9.078,-2.018Zm246.112,-697.989c3.026,0 6.052,2.018 8.069,3.026c2.017,3.026 5.043,5.044 8.069,4.035c-8.069,-1.009 -16.138,-1.009 -24.208,-2.017l-8.069,0c-11.095,0 -22.19,0 -33.285,3.026c7.06,-5.044 16.138,-6.052 25.216,-4.035c-1.009,-1.009 -2.017,-2.017 0,-3.026c4.035,-1.009 8.069,-1.009 12.104,-1.009l12.104,0Zm-227.956,622.34c-2.018,3.026 -10.087,1.009 -12.104,1.009c-4.035,0 -6.052,-3.026 -7.061,-6.052l0,-9.078c-1.008,-2.017 -1.008,-5.043 -1.008,-7.06c0,-7.061 3.026,-24.208 3.026,-31.269c0,-3.026 0,-24.207 1.008,-26.225c-1.008,-5.043 1.009,-11.095 1.009,-16.138c-6.052,1.008 -4.035,27.233 -9.078,29.251l1.009,0c-3.026,1.008 -1.009,4.034 -3.026,6.052l0,-9.078c1.008,-27.234 4.034,-54.468 10.086,-81.701c1.009,-3.026 2.018,-6.052 2.018,-9.078c5.043,-16.139 9.077,-31.268 13.112,-47.407c1.009,-3.026 2.017,-6.052 3.026,-9.078c8.069,-30.259 19.164,-58.502 30.26,-87.753c1.008,-3.026 3.026,-6.052 4.034,-9.078c3.026,-8.069 6.052,-16.138 10.087,-23.199l-1.009,0c4.035,-10.086 8.069,-20.173 12.104,-30.259c2.017,-3.026 3.026,-6.052 5.043,-10.087c5.044,-12.104 11.095,-24.208 17.147,-36.311c2.018,-3.026 4.035,-6.052 5.044,-9.078c9.078,-14.122 18.155,-27.234 27.233,-41.355c2.018,-3.026 4.035,-5.044 6.052,-8.069c10.087,-14.122 22.191,-28.243 34.295,-40.347c3.026,-3.026 5.043,-5.043 8.069,-8.069c14.121,-12.104 28.242,-24.208 45.389,-32.277c2.018,-2.017 5.044,-3.026 7.061,-4.034l20.173,-6.052c17.147,-8.07 33.286,4.034 42.363,19.164c2.018,3.026 4.035,6.052 6.052,9.078c8.07,13.112 11.096,27.234 14.122,41.355c0,4.034 1.008,7.06 1.008,10.086c2.017,19.165 1.009,38.329 -2.017,56.485c0,3.026 -1.009,6.052 -2.017,9.078c-3.026,15.13 -7.061,30.26 -14.122,45.389c0,0 1.009,2.018 0,2.018c-1.008,1.008 -3.026,6.052 -4.034,10.086c-14.121,25.217 -25.217,51.442 -41.355,75.649c-2.017,3.026 -3.026,6.052 -5.043,8.07c-7.061,11.095 -13.113,21.181 -20.173,31.268c-2.018,3.026 -4.035,6.052 -6.052,9.078c-6.052,8.069 -12.104,16.138 -18.156,24.207c-2.017,3.026 -4.035,5.044 -7.061,8.07c-6.052,8.069 -12.104,16.138 -18.156,24.207c-3.025,3.026 -5.043,5.044 -7.06,8.07c-22.191,31.268 -50.433,56.484 -72.623,86.744c-2.018,2.017 -7.061,8.069 -8.069,9.078c-2.018,2.017 -5.044,5.043 -8.07,8.069c-3.026,4.035 -6.052,7.061 -9.078,10.087c-2.017,2.017 -3.026,4.034 -5.043,5.043c-10.086,12.104 -29.251,34.294 -41.355,45.389c-2.017,2.018 -5.043,4.035 -7.06,6.052Zm61.528,-484.154c-2.018,-2.017 2.017,-1.009 1.008,-3.026c-6.052,16.139 -15.13,32.277 -30.259,41.355c9.078,-13.113 15.129,-29.251 29.251,-38.329Zm-77.667,548.708c1.009,0 2.018,4.035 -2.017,4.035c0,-1.009 1.009,-3.026 2.017,-4.035Zm-14.121,182.567c-1.009,-2.018 -2.017,-4.035 -2.017,-7.061c-1.009,-3.026 -2.018,-7.06 -2.018,-11.095c-1.008,-3.026 -1.008,-7.061 -1.008,-10.087c-2.018,2.018 -2.018,5.044 -2.018,8.07l0,8.069c-1.008,-3.026 -1.008,-6.052 -1.008,-10.087c-2.018,-16.138 -3.026,-32.277 -3.026,-48.415c-1.009,-5.043 11.095,-18.156 19.164,-17.147c11.095,0 23.199,0 34.295,5.043c1.008,0 -5.044,-5.043 -5.044,-6.052c3.026,1.009 12.104,5.043 15.13,6.052c3.026,1.009 6.052,3.026 9.078,4.035c24.208,12.104 43.372,29.251 61.528,49.424c2.017,3.026 4.035,6.052 6.052,8.069c8.069,13.113 13.112,27.234 17.147,41.355c1.009,3.026 1.009,6.052 2.017,9.078c3.026,13.112 3.026,25.216 4.035,38.329l0,28.242c-1.009,4.035 -1.009,7.061 -2.017,11.095c-4.035,13.113 -10.087,25.217 -22.191,35.303c-5.043,3.026 -11.095,6.052 -17.147,8.069c-12.104,4.035 -26.225,3.026 -37.32,-4.034c-3.026,-1.009 -6.052,-3.026 -8.069,-5.044c-16.139,-13.112 -27.234,-32.277 -30.26,-52.45c-1.009,-3.026 -2.017,-7.06 -3.026,-10.086c-3.026,-10.087 -7.061,-20.173 -12.104,-28.243c-1.009,-2.017 -2.017,-5.043 -3.026,-8.069c-6.052,-14.121 -12.104,-28.242 -17.147,-42.363Zm-7.061,-5.044c0,-1.008 1.009,-4.034 -1.008,-4.034c1.008,0 1.008,-1.009 2.017,-1.009c2.017,13.113 7.061,25.217 11.095,37.32c-8.069,-9.077 -8.069,-21.181 -12.104,-32.277Zm190.636,68.589c0,-1.009 -1.008,-16.138 -2.017,-20.173c3.026,11.095 5.043,36.311 5.043,48.415c1.009,3.026 1.009,5.044 0,8.07c0,6.052 0,11.095 -1.008,16.138c0,-16.138 -4.035,-15.13 -6.052,-23.199c0,3.026 -1.009,5.043 -2.018,8.069c-1.008,-4.034 -1.008,-7.06 -1.008,-10.086c2.017,-10.087 2.017,-20.173 0,-30.26c6.052,0 3.026,7.061 5.043,10.087c1.009,-2.018 3.026,-4.035 2.017,-7.061Z" style="fill-rule:nonzero;"/><path d="M2068.83,1634.02c-1.009,3.026 -6.052,2.017 -6.052,-2.018c-2.017,-8.069 -6.052,-17.147 -11.095,-25.216c-1.009,-3.026 -3.026,-5.043 -6.052,-8.069c-8.07,-9.078 -14.121,-18.156 -24.208,-26.225c-5.043,-4.035 -10.087,-10.087 -15.13,-14.121c-5.043,-5.044 -15.13,-8.07 -21.182,-11.096c-3.026,-1.008 -6.051,-2.017 -9.077,-2.017c-10.087,-2.017 -20.174,-2.017 -30.26,0c-3.026,0 -6.052,1.009 -9.078,2.017c-13.113,2.018 -25.216,7.061 -36.312,13.113c-2.017,1.009 -4.034,3.026 -6.051,4.035c-27.234,24.207 -47.407,54.467 -67.58,82.709c-2.018,2.018 -4.035,5.044 -6.052,8.07c-20.173,27.233 -31.269,58.502 -42.364,89.77c-2.017,4.034 -3.026,8.069 -4.034,11.095c-4.035,10.087 -7.061,20.173 -10.087,31.268c-1.009,3.026 -2.017,6.052 -3.026,10.087c-4.035,17.147 -9.078,35.303 -9.078,53.459l0,45.389c-2.017,10.087 -1.008,22.19 1.009,33.286c1.008,3.026 1.008,5.043 2.017,8.069c3.026,12.104 3.026,25.216 9.078,36.311c1.009,2.018 3.026,4.035 4.035,6.052c14.121,13.113 30.259,30.26 52.45,25.217c3.026,-1.009 6.052,2.017 9.078,2.017c6.052,-1.009 10.086,-2.017 15.129,-5.043c2.018,-2.017 4.035,-3.026 6.052,-5.043c26.225,-24.208 45.39,-56.485 67.58,-86.745c2.018,-2.017 4.035,-3.026 6.052,-5.043c8.069,-14.121 17.147,-27.234 26.225,-40.346c2.017,-3.026 4.035,-5.044 6.052,-8.069c9.078,-14.122 21.182,-24.208 29.251,-37.321c1.009,-2.017 3.026,-4.034 4.035,-7.06c1.008,-2.018 2.017,-4.035 2.017,-7.061l1.009,1.009c8.069,-11.095 15.13,-23.199 23.199,-34.294c4.034,-6.052 12.104,-2.018 11.095,5.043c-2.017,13.112 -4.035,25.216 -6.052,37.32c-1.009,3.026 -2.017,7.061 -2.017,10.087c-3.026,3.026 -1.009,7.06 -3.026,10.086l0,-4.035c-15.13,28.243 -14.121,61.528 -18.156,91.788l0,9.078c-1.009,6.052 -1.009,12.104 -1.009,18.156l0,11.095c1.009,16.138 3.026,27.234 5.044,43.372c0,3.026 0,6.052 1.008,9.078c1.009,11.095 3.026,22.19 5.044,33.286c1.008,4.034 1.008,7.06 2.017,11.095c5.043,24.208 14.121,35.303 24.208,57.493c1.008,3.026 3.025,7.061 4.034,10.087c8.069,13.112 22.191,23.199 36.312,25.216c10.086,2.017 18.156,1.009 28.242,1.009c3.026,0 5.043,-1.009 8.069,-2.018c2.018,-1.008 4.035,-2.017 7.061,-4.034c2.017,-2.018 5.043,-5.043 8.069,-8.069c7.061,-11.096 8.069,-22.191 13.113,-33.286c5.043,-9.078 8.069,-18.156 11.095,-27.234c1.008,-4.034 1.008,-7.06 2.017,-10.086c5.043,-18.156 23.199,-55.476 28.242,-73.632c1.009,-3.026 2.018,-7.061 3.026,-11.095c4.035,-11.095 25.217,-71.615 27.234,-83.719c1.009,-2.017 1.009,-5.043 2.017,-8.069c1.009,-10.086 10.087,-34.294 11.096,-44.381c0,1.009 1.008,1.009 1.008,2.018c1.009,-4.035 2.018,-7.061 3.026,-11.096c0,-3.026 1.009,-7.06 2.018,-10.086c2.017,-9.078 4.034,-18.156 7.06,-27.234c1.009,-3.026 7.061,-22.19 8.069,-25.216c9.078,-25.217 27.234,-64.554 28.243,-90.779c0,-4.035 -12.104,-12.104 -14.121,-9.078c-18.156,19.164 -27.234,62.537 -36.312,86.744c-1.009,4.035 -2.017,7.061 -4.035,11.096c-3.026,10.086 -12.103,36.311 -16.138,47.406c-1.009,3.026 -2.017,6.052 -3.026,9.078c-3.026,9.078 -27.234,68.589 -30.26,77.667c-1.008,3.026 -9.078,25.216 -10.086,28.242c-5.044,14.121 -23.199,55.476 -29.251,69.597c-1.009,4.035 -2.018,7.061 -3.026,10.087c-5.044,14.121 -10.087,27.233 -16.139,40.346c-1.008,2.017 -1.008,5.043 -2.017,7.06c-6.052,9.078 -13.113,14.122 -15.13,8.07c0,-3.026 -1.008,-7.061 -1.008,-10.087c-2.018,-9.078 -4.035,-18.156 -5.044,-27.234c-1.008,-13.112 -2.017,-26.225 -2.017,-39.337l0,-9.078c0,-34.294 4.035,-63.545 11.095,-97.839c1.009,-4.035 2.017,-7.061 2.017,-11.096c2.018,-10.086 4.035,-20.173 6.052,-31.268c1.009,-3.026 2.018,-6.052 2.018,-9.078c7.06,-32.277 16.138,-64.554 24.207,-95.822c0,-4.035 1.009,-7.061 2.018,-11.095c3.026,-11.096 5.043,-22.191 8.069,-32.277c1.009,-4.035 2.017,-7.061 2.017,-10.087c5.044,-16.138 8.069,-33.285 10.087,-49.424c0,-3.026 -1.009,-6.052 -1.009,-8.069c-2.017,-14.121 -9.078,-27.234 -19.164,-38.329c-7.061,-9.078 -19.165,-11.095 -30.26,-9.078c-4.035,0 -6.052,1.009 -9.078,2.017c-17.147,9.078 -18.156,33.286 -25.216,51.442Zm-62.537,-2.018c2.018,3.026 5.043,6.052 6.052,10.087c4.035,5.043 7.061,11.095 8.069,17.147c2.018,6.052 3.026,12.104 2.018,19.165c-1.009,13.112 -5.044,26.225 -12.104,37.32c-1.009,3.026 -3.026,5.043 -5.043,7.06c-1.009,2.018 -3.026,5.044 -5.044,7.061c-1.008,2.017 -3.026,4.035 -4.034,6.052c-1.009,1.009 -3.026,2.017 -4.035,3.026c-1.009,1.009 -1.009,3.026 -2.017,4.035c-16.139,17.147 -31.269,35.302 -46.398,52.45c-3.026,3.026 -5.044,5.043 -7.061,8.069c-6.052,7.06 -12.104,14.121 -19.164,21.182c-2.018,2.017 -4.035,5.043 -6.052,7.06c-21.182,23.199 -41.355,48.416 -66.572,67.58c-3.026,-32.277 6.052,-64.554 15.13,-95.822c1.009,-3.026 2.018,-7.061 3.026,-10.087c5.043,-16.138 12.104,-32.277 19.165,-47.407c1.008,-3.025 3.026,-6.051 4.034,-9.077c10.087,-20.174 21.182,-39.338 34.295,-56.485c2.017,-3.026 4.034,-5.043 5.043,-8.069c14.121,-17.147 28.242,-34.295 47.407,-44.381c2.017,-1.009 4.034,-2.017 6.052,-3.026c3.025,-1.009 5.043,-1.009 7.06,-1.009c4.035,0 8.069,0 12.104,1.009c4.035,1.009 7.061,3.026 8.069,7.06Zm-138.186,272.337c1.009,-1.008 3.026,-1.008 3.026,-2.017c0,2.017 0,4.035 -1.008,7.061c-1.009,2.017 -2.018,4.034 -4.035,6.051c-6.052,8.07 -15.13,16.139 -22.19,22.191c1.008,-10.087 8.069,-17.147 15.13,-23.199c2.017,-2.017 4.034,-3.026 5.043,-5.043c2.017,-2.018 3.026,-3.026 4.034,-5.044Zm244.095,229.974c0,-4.035 21.182,-50.433 25.216,-49.424c1.009,6.051 -22.19,50.432 -25.216,49.424Z" style="fill-rule:nonzero;"/><path d="M2766.82,1691.51c-4.035,-1.009 -5.043,-11.095 -10.087,-7.06c-6.052,1.008 -11.095,9.077 -15.129,9.077c-18.156,23.199 -31.269,55.476 -50.433,73.632c0,-2.017 3.026,-7.06 1.008,-7.06c-22.19,32.277 -42.363,64.554 -61.527,98.848c-19.165,30.259 -35.303,62.536 -62.537,85.735c-3.026,2.018 -10.087,-1.008 -11.095,-4.034c-10.087,-48.416 -1.009,-73.632 2.017,-115.995c5.043,-31.269 10.087,-57.494 15.13,-86.745c1.009,-1.008 1.009,-2.017 1.009,-3.026c2.017,-12.104 4.034,-22.19 6.051,-35.303c3.026,-11.095 6.052,-25.216 8.07,-38.329c5.043,-27.233 13.112,-102.882 12.104,-106.917c3.026,-27.234 4.034,-52.45 -18.156,-68.588c-2.018,-3.026 -4.035,-6.052 -6.052,-8.07c-17.147,-4.034 -22.191,-30.259 -41.355,-26.225c-24.208,4.035 -40.346,31.269 -53.459,46.398l-4.034,0c-15.13,30.26 -43.373,51.442 -52.45,85.736c-5.044,5.043 -11.096,10.087 -14.122,14.121c1.009,0 -6.051,6.052 -2.017,6.052c-2.017,2.017 -3.026,6.052 -4.034,2.017c-34.295,59.511 -63.546,121.039 -87.753,187.61c0,0 -6.052,2.018 -6.052,-2.017c1.008,-59.511 6.052,-94.814 15.129,-142.22c4.035,-21.182 8.07,-42.364 5.044,-67.58c-2.018,-3.026 -5.044,-5.044 -6.052,-8.069c3.026,-19.165 -2.018,-45.39 -24.208,-57.494c-3.026,1.009 -2.017,4.035 -6.052,4.035c0,-4.035 -2.017,-7.061 -2.017,-10.087c-9.078,4.035 -11.095,-2.017 -18.156,2.018c-2.017,-4.035 3.026,-5.044 0,-7.061c-14.121,7.061 -15.13,21.182 -20.173,35.303c-2.017,10.086 -4.035,17.147 -5.043,24.208c-1.009,29.251 -10.087,62.536 -13.113,96.83c-2.017,15.13 2.017,31.269 1.009,45.39c-2.018,17.147 -7.061,34.294 -7.061,50.433c0,3.026 4.035,5.043 5.043,6.052c-4.034,20.173 -2.017,49.424 -6.051,70.605c0,-8.069 0,-11.095 -3.026,-20.173c0,20.173 1.008,47.407 4.034,61.528c-2.017,6.052 4.035,19.165 5.043,34.295c0,5.043 -2.017,9.077 -2.017,14.121c1.009,27.233 8.069,63.545 23.199,75.649c8.069,7.06 16.139,8.069 27.234,12.104c3.026,-4.035 13.112,-5.044 22.19,-8.07c-1.008,-5.043 0,-8.069 3.026,-10.086c7.061,4.035 8.07,-6.052 17.147,-7.061c7.061,-28.242 4.035,-64.554 17.148,-87.753c-2.018,-2.017 -2.018,-6.052 -2.018,-8.069c1.009,-2.017 0,-6.052 2.018,-6.052c15.129,-77.666 35.302,-153.315 73.631,-216.861c1.009,-11.095 8.07,-20.173 14.122,-29.251c17.147,-24.207 36.311,-48.415 55.476,-70.605c5.043,-7.061 21.181,-24.208 23.199,-28.243c0,2.018 0,3.026 -1.009,4.035c4.035,-5.043 11.095,-12.104 19.164,-11.095c-5.043,8.069 -21.181,11.095 -21.181,19.164c7.06,0 15.129,0 14.121,6.052c-9.078,32.277 -18.156,66.571 -26.225,100.866c-29.251,79.683 -48.416,178.531 -34.294,254.181c2.017,10.086 9.077,40.346 15.129,57.493c6.052,15.13 27.234,33.285 39.338,41.355c8.069,3.026 15.13,0 21.182,1.008c8.069,1.009 13.112,6.052 19.164,5.044c10.087,-1.009 16.139,-12.104 30.26,-11.096c-6.052,2.018 -6.052,6.052 -12.104,8.07c19.164,3.026 30.26,-18.156 38.329,-30.26c22.19,-34.294 38.329,-65.563 56.484,-100.865c12.104,-23.2 22.191,-46.399 36.312,-68.589c11.095,-16.138 19.164,-29.251 27.234,-45.389c4.034,-9.078 8.069,-17.148 13.112,-24.208c4.035,-9.078 10.087,-15.13 14.121,-24.208c-5.043,-5.043 13.113,-19.164 7.061,-29.251Zm-56.485,42.364c-1.008,1.008 -2.017,1.008 -2.017,2.017c-4.035,7.061 -13.113,15.13 -14.121,23.199c5.043,-9.078 11.095,-15.13 16.138,-25.216Z" style="fill-rule:nonzero;"/><path d="M2821.28,1838.78c7.061,6.052 15.13,11.095 24.208,14.121c4.035,1.009 8.069,1.009 12.104,1.009c12.104,1.008 23.199,-5.044 32.277,-17.148c0,-1.008 -1.009,-2.017 -2.017,-1.008l0,2.017c-9.078,-24.208 -4.035,-51.441 -1.009,-76.658l0,-1.008c-5.043,-9.078 -4.035,-20.173 -5.043,-30.26c0,-14.121 -1.009,-28.242 -1.009,-42.363c0,-12.104 0,-24.208 -1.009,-35.303c7.061,-3.026 11.095,-65.563 14.121,-90.779l-1.008,0c-4.035,-9.078 -3.026,-21.182 -4.035,-31.269c0,-14.121 -1.008,-28.242 -1.008,-42.363c0,-14.121 0,-27.234 -1.009,-41.355c-1.009,-10.087 -1.009,-20.173 2.017,-30.26l0,-47.406c1.009,-15.13 1.009,-30.26 2.017,-46.399c0,-3.025 0,-6.051 -1.008,-10.086c-1.009,-6.052 -4.035,-12.104 -8.069,-19.165c-3.026,-5.043 -7.061,-10.086 -14.122,-14.121c-10.086,-6.052 -14.121,-18.155 -24.207,-20.173c-22.191,-8.069 -31.269,12.104 -35.303,33.286c-1.009,5.043 -2.018,9.078 -2.018,13.112c-8.069,45.39 -12.103,91.788 -15.129,137.177c0,5.044 -1.009,9.078 -1.009,14.122c-1.009,17.147 -1.009,35.302 -1.009,52.45l0,13.112c0,5.043 1.009,9.078 1.009,13.113c1.009,4.034 2.017,8.069 3.026,12.103c-4.035,31.269 -7.061,63.546 -9.078,94.814c0,4.035 0,9.078 -1.009,13.113c0,18.155 -1.008,35.302 -1.008,53.458l0,13.113c1.008,4.034 1.008,8.069 1.008,13.112c7.061,35.303 22.191,69.597 37.321,101.874c0,1.009 1.008,2.018 1.008,2.018Zm62.537,-6.052c-1.009,-1.009 -2.017,-4.035 -2.017,-6.052c2.017,0 2.017,3.026 2.017,6.052Zm-6.052,1.008c0,-3.026 0,-6.051 1.009,-7.06c3.026,1.009 5.043,8.069 -1.009,7.06Zm2.017,-448.851c0,-3.026 0,-6.052 1.009,-8.069l0,-12.104c1.009,-4.035 1.009,-8.069 1.009,-12.104c2.017,4.035 2.017,8.069 2.017,12.104c0,4.035 -1.009,8.069 0,12.104c0,6.052 0,12.104 -1.009,13.112c-1.008,12.104 -1.008,25.217 -1.008,36.312c0,-1.009 -1.009,-2.017 -1.009,-4.035c0,2.018 -1.009,2.018 -1.009,3.026l0,-40.346Zm-3.026,37.32c0,-2.017 1.009,-4.034 0,-6.052c1.009,2.018 1.009,4.035 0,6.052c0,3.026 0,4.035 2.018,6.052c0,1.009 -1.009,1.009 -1.009,2.018c-3.026,-3.026 -2.017,-5.044 -1.009,-8.07Zm-4.034,161.385c0,-2.017 0,-5.043 1.008,-8.069c0,-4.035 0,-8.069 1.009,-12.104c0,-4.035 0,-7.061 1.009,-11.095c1.008,4.034 1.008,7.06 1.008,11.095c0,4.035 -1.008,8.069 0,12.104c1.009,6.052 0,12.104 -1.008,13.112l0,37.321c0,-1.009 -2.018,-3.026 -2.018,-4.035c0,1.009 -1.008,1.009 -1.008,3.026l0,-41.355Zm-3.026,38.329c0,-2.017 1.008,-5.043 0,-6.052c2.017,2.017 1.008,4.035 0,6.052c0,2.017 0,4.035 3.026,5.043c-1.009,1.009 -2.018,1.009 -2.018,2.018c-2.017,-2.018 -2.017,-5.044 -1.008,-7.061Zm-25.217,201.731l-3.026,0c0,-1.009 0,-3.026 3.026,-3.026l0,3.026Zm5.044,-77.667c0,5.044 3.026,12.104 1.008,17.148l0,14.121c-1.008,4.034 0,8.069 -4.034,10.086c2.017,-14.121 -2.018,-28.242 3.026,-41.355Zm-3.026,48.416c2.017,1.009 1.008,5.043 0,7.061c-2.018,5.043 0,12.103 -2.018,17.147c-8.069,-8.07 -1.008,-17.147 2.018,-24.208Zm14.121,158.359c-6.052,-2.018 -15.13,-13.113 -20.173,-10.087c-17.147,-3.026 -28.243,16.139 -33.286,31.268c-8.069,8.07 -13.112,25.217 -6.052,35.303c-11.095,13.113 8.069,30.26 18.156,41.355c11.095,2.018 30.26,8.069 40.346,4.035c0,0 4.035,-2.017 8.069,-5.043c7.061,-7.061 13.113,-19.165 18.156,-27.234c1.009,0 2.018,-2.017 2.018,-3.026c17.147,-22.19 -6.052,-63.545 -27.234,-66.571Zm-47.407,24.207c-1.009,-1.008 2.017,-4.034 1.009,-6.051c2.017,1.008 1.008,4.034 -1.009,6.051Zm74.641,11.096c3.025,2.017 2.017,7.06 1.008,10.086c-1.008,-1.008 -1.008,-7.06 -1.008,-10.086Z" style="fill-rule:nonzero;"/></g></svg>